# xmcd
#
# Track frame offsets:
# 150
# 19406
# 39078
# 52049
# 65353
# 73352
# 88647
# 115045
# 120434
# 131268
# 149639
# 168694
#
# Disc length: 2654 seconds
#
#
# Revision: 0
# Processed by: cddbd v1.5.2PL0 Copyright (c) Steve Scherf et al.
# Submitted via: FreeRIP 2.943 
#
DISCID=ac0a5c0c
DTITLE=cephalic carnage - xenosapien
DYEAR=2007
DGENRE=Death Metal
TTITLE0=endless cycle of violence
TTITLE1=divination and violation
TTITLE2=molting
TTITLE3=touched by an angel
TTITLE4=vaporized
TTITLE5=heptarchy
TTITLE6=g.lobal o.verhaul d.evice
TTITLE7=let them hate so long as they fear
TTITLE8=the omega point
TTITLE9=megacosm of the aquaphobics
TTITLE10=ov vicissitude
TTITLE11=hidden track
EXTD=
EXTT0=
EXTT1=
EXTT2=
EXTT3=
EXTT4=
EXTT5=
EXTT6=
EXTT7=
EXTT8=
EXTT9=
EXTT10=
EXTT11=
PLAYORDER=
